<?xml version="1.0" encoding="UTF-8" standalone="no"?>
<!DOCTYPE svg PUBLIC "-//W3C//DTD SVG 1.1//EN" "http://www.w3.org/Graphics/SVG/1.1/DTD/svg11.dtd">
<svg width="100%" height="100%" viewBox="0 0 512 512" version="1.1" xmlns="http://www.w3.org/2000/svg" xmlns:xlink="http://www.w3.org/1999/xlink" xml:space="preserve" xmlns:serif="http://www.serif.com/" style="fill-rule:evenodd;clip-rule:evenodd;stroke-linejoin:round;stroke-miterlimit:2;">
    <rect x="-120.898" y="-52.172" width="1233.243" height="1153.886" style="fill:rgb(123,215,255);"/>
    <g transform="matrix(1,0,0,1,-164.987574,-300.255362)">
        <g transform="matrix(1.150673,0.664341,-1.726534,2.990444,327.653508,-1183.099367)">
            <path d="M691.818,462.141L691.818,489.987C691.818,494.36 682.592,497.91 671.228,497.91L630.048,497.91C618.684,497.91 609.458,494.36 609.458,489.987L609.458,453.233C611.254,453.689 613.267,454.043 615.457,454.269L691.818,462.141Z" style="fill:rgb(25,88,57);"/>
            <path d="M691.818,462.141L691.818,489.987C691.818,494.36 682.592,497.91 671.228,497.91L630.048,497.91C618.684,497.91 609.458,494.36 609.458,489.987L609.458,453.233C611.254,453.689 613.267,454.043 615.457,454.269L691.818,462.141ZM618.49,458.179L618.49,489.987C618.49,492.442 623.669,494.435 630.048,494.435L671.228,494.435C677.607,494.435 682.786,492.442 682.786,489.987L682.786,464.808L618.49,458.179Z" style="fill:rgb(24,88,58);"/>
        </g>
        <g transform="matrix(1.150673,0.664341,-1.726534,2.990444,507.653508,-1183.099367)">
            <path d="M492.136,479.297C484.931,477.47 481.221,474.01 483.575,470.629L494.233,455.324C497.175,451.1 508.474,448.59 519.451,449.722L604.477,458.488C598.788,423.342 604.457,373.418 604.457,373.418L672.382,358.328C672.382,358.328 675.311,424.234 685.311,466.822C687.024,474.116 688.628,481.245 689.976,488.024C690.94,492.872 683.499,497.455 670.519,497.154C666.736,497.067 663.062,497.01 659.565,496.976L498.135,480.332C495.944,480.106 493.932,479.753 492.136,479.297Z" style="fill:rgb(25,88,57);"/>
            <path d="M492.136,479.297C484.931,477.47 481.221,474.01 483.575,470.629L494.233,455.324C497.175,451.1 508.474,448.59 519.451,449.722L604.477,458.488C598.788,423.342 604.457,373.418 604.457,373.418L672.382,358.328C672.382,358.328 675.311,424.234 685.311,466.822C687.024,474.116 688.628,481.245 689.976,488.024C690.94,492.872 683.499,497.455 670.519,497.154C666.736,497.067 663.062,497.01 659.565,496.976L498.135,480.332C495.944,480.106 493.932,479.753 492.136,479.297ZM497.105,476.396C498.113,476.651 499.243,476.849 500.472,476.976L660.872,493.513C664.143,493.549 667.556,493.605 671.061,493.686C678.325,493.853 681.51,491.002 680.971,488.289C679.626,481.525 678.025,474.412 676.316,467.135C668.095,432.125 664.639,381.395 663.661,364.278L613.278,375.471C612.322,384.89 608.483,427.332 613.491,458.272C613.671,459.388 612.445,460.47 610.195,461.178C607.945,461.886 604.947,462.134 602.139,461.845L517.113,453.078C510.951,452.443 504.608,453.852 502.957,456.223L492.299,471.529C490.977,473.427 493.06,475.37 497.105,476.396Z"/>
        </g>
    </g>
</svg>
